<svg xmlns="http://www.w3.org/2000/svg" width="94.33" height="52.89" viewBox="-1.48 -1.50 94.33 52.89" fill="none">
  <path d="M38.446 3.99857C34.4047 1.38988 29.7219 0 24.9108 0C20.0996 0 15.3954 1.38988 11.3541 3.99857C10.5202 4.53314 9.98559 5.40984 9.90006 6.39344C9.79315 7.39843 10.1353 8.38204 10.8623 9.10905L12.2094 10.4562C12.8509 11.0976 13.6848 11.4398 14.5401 11.4398C15.1388 11.4398 15.7162 11.2687 16.2507 10.948C18.8594 9.34426 21.853 8.48895 24.9108 8.48895C27.9685 8.48895 30.9621 9.34426 33.5494 10.948C34.8537 11.7391 36.5002 11.5467 37.5907 10.4562L38.9378 9.10905C39.6435 8.40342 40.007 7.39843 39.9001 6.39344C39.7931 5.40984 39.2586 4.53314 38.446 3.99857Z" fill="#008691"/>
  <path d="M21.0621 41.2471C13.514 39.451 8.23246 32.8009 8.23246 25.039C8.23246 21.9599 9.08777 18.9449 10.7129 16.3362C11.4826 15.096 11.2902 13.4923 10.2424 12.4445L8.89533 11.0974C8.21108 10.4132 7.24885 10.0711 6.28663 10.178C5.34579 10.2849 4.49048 10.7981 3.99868 11.5892C1.38998 15.6092 0.0214844 20.2706 0.0214844 25.0604C0.0214844 36.714 8.27522 46.9349 19.6508 49.3939C19.8647 49.4367 20.0785 49.4581 20.3137 49.4581C21.0193 49.4581 21.7036 49.2229 22.2809 48.7524C23.0507 48.1323 23.4784 47.2343 23.4784 46.2507V44.369C23.4784 42.8936 22.4734 41.5892 21.1049 41.2685" fill="#EB5D81"/>
  <path d="M66.4579 0.128418C52.7302 0.128418 41.5684 11.2902 41.5684 25.0179V25.1249V25.2532C41.4615 33.0579 35.8164 39.8362 28.1614 41.3544C27.1136 41.5682 26.3652 42.4877 26.3652 43.5568V47.3629C26.3652 48.0258 26.6646 48.6673 27.1564 49.0949C27.6482 49.5226 28.3111 49.6936 28.9312 49.5867C41.0124 47.6195 49.8007 37.2703 49.8007 25.0179C49.8007 15.8234 57.2847 8.36078 66.4579 8.36078C75.6311 8.36078 83.115 15.8447 83.115 25.0179C83.115 34.1911 75.6311 41.6751 66.4579 41.6751C64.1913 41.6751 62.331 43.514 62.331 45.7806C62.331 48.0472 64.1699 49.8861 66.4579 49.8861C80.1856 49.8861 91.3474 38.7243 91.3474 24.9966C91.3474 11.2688 80.1856 0.128418 66.4579 0.128418Z" fill="#008691"/>
</svg>
